' Blob ID: 3bf1ff34167061f9fa5b8bd87f273bfe550f0de6
' Original Path: /documentation/productApi/workforce/media/src/appointmentManagement.api.puml
' Source: World of Code

@startuml
skinparam {
    ClassBackgroundColor White
    ClassBorderColor Black
}

class Appointment {

    id*: string
    href: string
    status*: AppointmentStatusType
}

Appointment *-->"*" AttachmentValue : attachment
Appointment *-->"*" Note : note
Appointment *-->"1" RelatedPlaceRefOrValue : relatedPlace
Appointment *-->"1" TimePeriod : validFor
Appointment *-->"1..*" RelatedContactInformation : relatedContactInformation
Appointment *-->"1" WorkOrderRef : workOrder


class Appointment_Find {

    id*: string
    href: string
    status*: AppointmentStatusType
}

Appointment_Find *-->"1" RelatedPlaceRefOrValue : relatedPlace
Appointment_Find *-->"1" TimePeriod : validFor
Appointment_Find *-->"1" WorkOrderRef : workOrder


enum AppointmentStatusType {

    confirmed
    inProgress
    cancelled
    missed
    failed
    completed
}
class Appointment_Create {

}

Appointment_Create *-->"*" AttachmentValue : attachment
Appointment_Create *-->"*" Note : note
Appointment_Create *-->"1..*" RelatedContactInformation : relatedContactInformation
Appointment_Create *-->"1" TimePeriod : validFor
Appointment_Create *-->"1" WorkOrderRef : workOrder


class Appointment_Update {

}

Appointment_Update *-->"*" AttachmentValue : attachment
Appointment_Update *-->"*" Note : note
Appointment_Update *--> RelatedPlaceRefOrValue : relatedPlace
Appointment_Update *-->"*" RelatedContactInformation : relatedContactInformation
Appointment_Update *--> TimePeriod : validFor


class AttachmentValue {

    attachmentId: string
    author*: string
    content: string
    creationDate: date-time
    description: string
    mimeType: string
    name*: string
    source*: MEFBuyerSellerType
    url: string
}

AttachmentValue *--> MEFByteSize : size


class Error400 {

    code*: Error400Code
}
Error <|-- Error400



class Error401 {

    code*: Error401Code
}
Error <|-- Error401



class Error403 {

    code*: Error403Code
}
Error <|-- Error403



class Error422 {

    code*: Error422Code
    propertyPath: string
}
Error <|-- Error422



class EventSubscription {

    callback*: string
    id*: string
    query: string
}



class FieldedAddress {

    city*: string
    country*: string
    locality: string
    postcode: string
    postcodeExtension: string
    stateOrProvince: string
    streetName*: string
    streetNr: string
    streetNrLast: string
    streetNrLastSuffix: string
    streetNrSuffix: string
    streetSuffix: string
    streetType: string
}
RelatedPlaceRefOrValue <|-- FieldedAddress

FieldedAddress *--> GeographicSubAddress : geographicSubAddress


class GeographicAddressLabel {

    externalReferenceId*: string
    externalReferenceType*: string
}
RelatedPlaceRefOrValue <|-- GeographicAddressLabel



class RelatedPlaceRefOrValue {

    @schemaLocation: uri
    @type*: string
    role*: string
}



class SearchTimeSlot_Create {

}

SearchTimeSlot_Create *-->"1..*" TimeSlot : requestedTimeSlot
SearchTimeSlot_Create *-->"1" WorkOrderRef : workOrder


enum Error422Code {

    missingProperty
    invalidValue
    invalidFormat
    referenceNotFound
    unexpectedProperty
    tooManyRecords
    otherIssue
}
enum MEFBuyerSellerType {

    buyer
    seller
}
class MEFGeographicPoint {

    spatialRef*: string
    x*: string
    y*: string
    z: string
}
RelatedPlaceRefOrValue <|-- MEFGeographicPoint



class TimeSlot {

}

TimeSlot *-->"1" TimePeriod : validFor


enum Error400Code {

    missingQueryParameter
    missingQueryValue
    invalidQuery
    invalidBody
}
class Error409 {

    code*: string
}
Error <|-- Error409



enum Error401Code {

    missingCredentials
    invalidCredentials
}
class Error404 {

    code*: string
}
Error <|-- Error404



class EventSubscriptionInput {

    callback*: string
    query: string
}



enum Error403Code {

    accessDenied
    forbiddenRequester
    tooManyUsers
}
enum DataSizeUnit {

    BYTES
    KBYTES
    MBYTES
    GBYTES
    TBYTES
    PBYTES
    EBYTES
    ZBYTES
    YBYTES
}
class Error500 {

    code*: string
}
Error <|-- Error500



class Error {

    message: string
    reason*: string
    referenceError: uri
}



class FormattedAddress {

    addrLine1*: string
    addrLine2: string
    city*: string
    country*: string
    locality: string
    postcode: string
    postcodeExtension: string
    stateOrProvince: string
}
RelatedPlaceRefOrValue <|-- FormattedAddress



class GeographicAddressRef {

    href: string
    id*: string
}
RelatedPlaceRefOrValue <|-- GeographicAddressRef



class GeographicSiteRef {

    href: string
    id*: string
}
RelatedPlaceRefOrValue <|-- GeographicSiteRef



class GeographicSubAddress {

    buildingName: string
    id: string
    levelNumber: string
    levelType: string
    privateStreetName: string
    privateStreetNumber: string
}

GeographicSubAddress *-->"*" MEFSubUnit : subUnit


class MEFByteSize {

    amount: float
    units: DataSizeUnit
}



class MEFSubUnit {

    subUnitNumber*: string
    subUnitType*: string
}



class Note {

    author*: string
    date*: date-time
    id*: string
    source*: MEFBuyerSellerType
    text*: string
}



class RelatedContactInformation {

    emailAddress*: string
    name*: string
    number*: string
    numberExtension: string
    organization: string
    role*: string
}

RelatedContactInformation *--> FieldedAddress : postalAddress


class SearchTimeSlot {

}

SearchTimeSlot *-->"1..*" TimeSlot : availableTimeSlot
SearchTimeSlot *-->"1..*" TimeSlot : requestedTimeSlot
SearchTimeSlot *-->"1" WorkOrderRef : workOrder


class TimePeriod {

    endDateTime*: date-time
    startDateTime*: date-time
}



class WorkOrderRef {

    href: string
    id*: string
}



@enduml
