' Blob ID: ee15c61d999d6d334418499fea8f81e34bed27fd
' Original Path: /life/20210121_1.puml
' Source: World of Code

@startuml

title 人生

hide empty members
skinparam class {
  BackgroundColor<<deprecated>> Grey
  BackgroundColor<<done>> Cyan
  BackgroundColor<<new>> Yellow
}

left to right direction

package 勝利条件 {
  class 幸せに生きる
}

package 中間目的 {
  class 不安がない
  不安がない --> 幸せに生きる

  class キャリアの不安がない<<ref>>
  キャリアの不安がない --> 不安がない

  class お金の不安がない<<ref>>
  お金の不安がない --> 不安がない

  class 新生活の準備の不安がない<<ref>>
  新生活の準備の不安がない --> 不安がない

  class 自己虐待をしていない
  自己虐待をしていない --> 心身が健康である

  class 他者との認識違いがない
  他者との認識違いがない --> 幸せに生きる

  class 心身が健康である
  心身が健康である --> 幸せに生きる
  class 筋骨隆々である
  筋骨隆々である --> 心身が健康である

  class 億劫でないタスクのやり忘れがない
  億劫でないタスクのやり忘れがない -> 自己効力感が低くない

  class 億劫で着手できないタスクがない<<new>>
  億劫で着手できないタスクがない -> 自己虐待をしていない

  class 睡眠の質がよい<<ref>>
  睡眠の質がよい --> 心身が健康である

  class 自己効力感が低くない
  自己効力感が低くない --> 心身が健康である

  class 勉強に時間がかかりすぎない
  勉強に時間がかかりすぎない -> 自己効力感が低くない

  class 食事に時間がかかりすぎない<<new>>
  食事に時間がかかりすぎない -> 自己効力感が低くない
}

package 施策 {
  class 自己虐待を見つけて改善する
  自己虐待を見つけて改善する --> 自己虐待をしていない

  class 人生をプ譜に書き留める
  人生をプ譜に書き留める --> 自己虐待を見つけて改善する


  class 自分の考えを相手が理解し相手の考えを自分が理解していることを確認する
  自分の考えを相手が理解し相手の考えを自分が理解していることを確認する --> 他者との認識違いがない

  class 自分の考えを自分が理解していることを確認する
  自分の考えを自分が理解していることを確認する --> 自己虐待をしていない


  class 健康的に太る
  健康的に太る --> 筋骨隆々である
  健康的に太る --> 心身が健康である
  class 健康アプリで確立した食事をしばらく続ける
  健康アプリで確立した食事をしばらく続ける --> 健康的に太る
  class 自動で集計できる体重計買う<<new>>
  自動で集計できる体重計買う --> 健康的に太る

  class ゆとりをもって勉強時間を見積もる
  ゆとりをもって勉強時間を見積もる --> 勉強に時間がかかりすぎない
  class 3値見積もりをする
  note bottom
  きのうの勉強時間は楽観〜普通の間くらいに収まった
  ひとまず継続
  end note
  3値見積もりをする -> ゆとりをもって勉強時間を見積もる

  class 食事にかかっている時間を測定する<<new>>
  note bottom
  食事に付随する歯磨きや食休み、朝なら洗顔も計上すべき
  end note
  食事にかかっている時間を測定する --> 食事に時間がかかりすぎない

  class やらなくてよいことはやらない決断をする<<new>>
  やらなくてよいことはやらない決断をする --> 億劫で着手できないタスクがない
  class 億劫でなくする<<new>>
  億劫でなくする --> 億劫で着手できないタスクがない
  class なぜ億劫なのか分析する<<new>>
  なぜ億劫なのか分析する -> 億劫でなくする
}

package 廟算八要素 {
  class メンバー {
   + 自分
   + 個人事業の営業代行
   + アサイン先正社員
   + 友人
   + 勉強会サークルの知り合い
   + SNSの知り合い
   + 趣味の知り合い
   + 家族
  }
  class 予算規模 {
   + ...
  }
  class 納期 {
   + 確定申告 3/15
   + マイナンバーカード たぶん今月届く
   + 新生活準備 1/31 (1/27(Wed)から有給)
  }
  class ビジネスモデル {
   + ...
  }
  class 環境 {
   + オタク趣味
   + - アニメ
   + - 蒐集
   + - 無形のものにお金を落とす
   + - 秋葉住み
   --
   + JetBrainsのライセンス
   + plantumlをリタルタイムにレンダリングできる環境
   --
   + 電子レンジ
   --
   + 養命酒
   --
   + 英字新聞の束
   --
   + 確定申告
   -- 食事時間 --
   + 朝: 1h程度(洗顔、調理、食事、洗い物、歯磨き、食休み)
  }

  class 競合 {
   + ...
  }
  class 外敵 {
   + ...
  }
  class 問題 {
   + 流しが汚くなって料理が億劫
   + 書類の掃き溜めが溜まってる
   + 英字新聞溜まってる
   + 新生活の準備への不安
   + 食事に時間かかりすぎ
   + lifeプロジェクトの編集に時間がかかっている
  }
  note right of 問題::書類の掃き溜めが溜まってる
  したくないものあるが、
  視界に入らないので単に忘れてたのもある
  end note
  note right of 問題::lifeプロジェクトの編集に時間がかかっている
  もう少しやってるうちに収束するか？様子見
  end note
}

中間目的 --u[hidden]--> 勝利条件
施策 --u[hidden]--> 中間目的
廟算八要素 ---u[hidden]--> 施策

@enduml
